<svg xmlns="http://www.w3.org/2000/svg" xmlns:xlink="http://www.w3.org/1999/xlink" width="500" zoomAndPan="magnify" viewBox="0 0 375 374.999991" height="500" preserveAspectRatio="xMidYMid meet" version="1.0"><defs><clipPath id="76b87239f8"><path d="M 0 177 L 375 177 L 375 366.9375 L 0 366.9375 Z M 0 177 " clip-rule="nonzero"/></clipPath></defs><path fill="#e5e3e3" d="M 210.039062 219.550781 L 319.78125 98.480469 L 226.332031 13.777344 L 103.179688 149.648438 L 180.304688 219.550781 Z M 210.039062 219.550781 " fill-opacity="1" fill-rule="nonzero"/><path fill="#436850" d="M 330.902344 182.058594 L 244.019531 182.058594 L 210.039062 219.550781 L 180.304688 219.550781 L 138.941406 182.058594 L 44.097656 182.058594 L 4.679688 242.640625 L 4.679688 361.679688 L 370.316406 361.679688 L 370.316406 242.640625 Z M 330.902344 182.058594 " fill-opacity="1" fill-rule="nonzero"/><path fill="#1c0306" d="M 292.339844 247.308594 L 4.679688 247.308594 C 2.101562 247.308594 0.0117188 245.21875 0.0117188 242.640625 C 0.0117188 240.0625 2.101562 237.96875 4.679688 237.96875 L 292.339844 237.96875 C 294.917969 237.96875 297.007812 240.0625 297.007812 242.640625 C 297.007812 245.21875 294.917969 247.308594 292.339844 247.308594 Z M 292.339844 247.308594 " fill-opacity="1" fill-rule="nonzero"/><path fill="#fed230" d="M 252.84375 124.0625 C 252.84375 125.417969 252.777344 126.769531 252.644531 128.117188 C 252.511719 129.464844 252.3125 130.804688 252.046875 132.132812 C 251.785156 133.460938 251.457031 134.773438 251.0625 136.070312 C 250.667969 137.367188 250.214844 138.640625 249.695312 139.890625 C 249.175781 141.144531 248.597656 142.367188 247.960938 143.5625 C 247.320312 144.757812 246.625 145.917969 245.871094 147.042969 C 245.121094 148.167969 244.3125 149.257812 243.453125 150.304688 C 242.59375 151.351562 241.6875 152.355469 240.726562 153.3125 C 239.769531 154.269531 238.769531 155.179688 237.71875 156.039062 C 236.671875 156.898438 235.585938 157.703125 234.460938 158.457031 C 233.332031 159.207031 232.171875 159.902344 230.980469 160.542969 C 229.785156 161.179688 228.5625 161.757812 227.308594 162.277344 C 226.058594 162.796875 224.785156 163.253906 223.488281 163.644531 C 222.191406 164.039062 220.878906 164.367188 219.550781 164.632812 C 218.222656 164.894531 216.882812 165.09375 215.535156 165.226562 C 214.1875 165.359375 212.835938 165.425781 211.480469 165.425781 C 210.125 165.425781 208.773438 165.359375 207.425781 165.226562 C 206.078125 165.09375 204.738281 164.894531 203.410156 164.632812 C 202.082031 164.367188 200.769531 164.039062 199.472656 163.644531 C 198.175781 163.253906 196.902344 162.796875 195.652344 162.277344 C 194.398438 161.757812 193.175781 161.179688 191.980469 160.542969 C 190.785156 159.902344 189.625 159.207031 188.5 158.457031 C 187.371094 157.703125 186.285156 156.898438 185.238281 156.039062 C 184.191406 155.179688 183.1875 154.269531 182.230469 153.3125 C 181.273438 152.355469 180.363281 151.351562 179.503906 150.304688 C 178.644531 149.257812 177.839844 148.167969 177.085938 147.042969 C 176.335938 145.917969 175.640625 144.757812 175 143.5625 C 174.363281 142.367188 173.78125 141.144531 173.265625 139.890625 C 172.746094 138.640625 172.289062 137.367188 171.898438 136.070312 C 171.503906 134.773438 171.175781 133.460938 170.910156 132.132812 C 170.644531 130.804688 170.449219 129.464844 170.316406 128.117188 C 170.183594 126.769531 170.117188 125.417969 170.117188 124.0625 C 170.117188 122.707031 170.183594 121.355469 170.316406 120.007812 C 170.449219 118.660156 170.644531 117.320312 170.910156 115.992188 C 171.175781 114.664062 171.503906 113.351562 171.898438 112.054688 C 172.289062 110.757812 172.746094 109.484375 173.265625 108.234375 C 173.78125 106.980469 174.363281 105.757812 175 104.5625 C 175.640625 103.371094 176.335938 102.207031 177.085938 101.082031 C 177.839844 99.957031 178.644531 98.871094 179.503906 97.820312 C 180.363281 96.773438 181.273438 95.773438 182.230469 94.8125 C 183.1875 93.855469 184.191406 92.949219 185.238281 92.089844 C 186.285156 91.230469 187.371094 90.421875 188.5 89.671875 C 189.625 88.917969 190.785156 88.222656 191.980469 87.582031 C 193.175781 86.945312 194.398438 86.367188 195.652344 85.847656 C 196.902344 85.328125 198.175781 84.875 199.472656 84.480469 C 200.769531 84.085938 202.082031 83.757812 203.410156 83.492188 C 204.738281 83.230469 206.078125 83.03125 207.425781 82.898438 C 208.773438 82.765625 210.125 82.699219 211.480469 82.699219 C 212.835938 82.699219 214.1875 82.765625 215.535156 82.898438 C 216.882812 83.03125 218.222656 83.230469 219.550781 83.492188 C 220.878906 83.757812 222.191406 84.085938 223.488281 84.480469 C 224.785156 84.875 226.058594 85.328125 227.308594 85.847656 C 228.5625 86.367188 229.785156 86.945312 230.980469 87.582031 C 232.171875 88.222656 233.332031 88.917969 234.460938 89.671875 C 235.585938 90.421875 236.671875 91.230469 237.71875 92.089844 C 238.769531 92.949219 239.769531 93.855469 240.726562 94.8125 C 241.6875 95.773438 242.59375 96.773438 243.453125 97.820312 C 244.3125 98.871094 245.121094 99.957031 245.871094 101.082031 C 246.625 102.207031 247.320312 103.371094 247.960938 104.5625 C 248.597656 105.757812 249.175781 106.980469 249.695312 108.234375 C 250.214844 109.484375 250.667969 110.757812 251.0625 112.054688 C 251.457031 113.351562 251.785156 114.664062 252.046875 115.992188 C 252.3125 117.320312 252.511719 118.660156 252.644531 120.007812 C 252.777344 121.355469 252.84375 122.707031 252.84375 124.0625 Z M 252.84375 124.0625 " fill-opacity="1" fill-rule="nonzero"/><path fill="#1c0306" d="M 211.457031 170.074219 C 200.425781 170.074219 189.363281 166.144531 180.566406 158.171875 C 161.757812 141.125 160.324219 111.953125 177.371094 93.148438 C 185.628906 84.035156 196.941406 78.6875 209.222656 78.082031 C 221.507812 77.472656 233.285156 81.695312 242.394531 89.953125 C 251.503906 98.210938 256.855469 109.523438 257.457031 121.804688 C 258.0625 134.085938 253.84375 145.867188 245.585938 154.976562 C 236.515625 164.988281 224.007812 170.074219 211.457031 170.074219 Z M 211.523438 87.367188 C 210.910156 87.367188 210.296875 87.382812 209.679688 87.414062 C 199.890625 87.894531 190.875 92.15625 184.292969 99.421875 C 170.703125 114.410156 171.847656 137.660156 186.835938 151.25 C 201.828125 164.835938 225.078125 163.695312 238.667969 148.707031 C 245.25 141.445312 248.609375 132.050781 248.128906 122.261719 C 247.648438 112.472656 243.386719 103.457031 236.125 96.875 C 229.316406 90.707031 220.644531 87.367188 211.523438 87.367188 Z M 211.523438 87.367188 " fill-opacity="1" fill-rule="nonzero"/><path fill="#1c0306" d="M 192.394531 136.441406 C 190.742188 136.441406 189.089844 135.851562 187.773438 134.660156 C 186.410156 133.425781 185.609375 131.730469 185.519531 129.894531 C 185.429688 128.054688 186.058594 126.292969 187.296875 124.929688 C 188.53125 123.566406 190.222656 122.765625 192.0625 122.675781 C 193.898438 122.589844 195.660156 123.214844 197.023438 124.453125 C 198.386719 125.6875 199.1875 127.382812 199.277344 129.21875 C 199.367188 131.054688 198.738281 132.820312 197.503906 134.183594 C 196.144531 135.679688 194.273438 136.441406 192.394531 136.441406 Z M 192.398438 127.105469 C 191.730469 127.105469 191.066406 127.375 190.582031 127.910156 C 190.148438 128.386719 189.917969 129.03125 189.949219 129.675781 C 189.980469 130.320312 190.273438 130.9375 190.753906 131.371094 C 191.230469 131.804688 191.875 132.035156 192.519531 132.003906 C 193.164062 131.972656 193.78125 131.679688 194.214844 131.203125 C 194.648438 130.726562 194.878906 130.082031 194.847656 129.4375 C 194.816406 128.792969 194.523438 128.171875 194.046875 127.738281 C 193.578125 127.3125 192.988281 127.105469 192.398438 127.105469 Z M 192.398438 127.105469 " fill-opacity="1" fill-rule="nonzero"/><path fill="#1c0306" d="M 215 111.503906 C 213.347656 111.503906 211.691406 110.914062 210.375 109.722656 C 209.011719 108.488281 208.210938 106.792969 208.121094 104.957031 C 208.03125 103.117188 208.664062 101.355469 209.898438 99.992188 C 212.449219 97.179688 216.8125 96.964844 219.628906 99.515625 C 220.988281 100.75 221.792969 102.441406 221.882812 104.28125 C 221.972656 106.117188 221.339844 107.878906 220.105469 109.242188 C 218.746094 110.742188 216.875 111.503906 215 111.503906 Z M 216.492188 102.976562 L 213.355469 106.4375 C 214.355469 107.34375 215.910156 107.265625 216.816406 106.265625 C 217.25 105.789062 217.484375 105.144531 217.449219 104.5 C 217.417969 103.855469 217.125 103.234375 216.648438 102.800781 C 215.648438 101.894531 214.09375 101.972656 213.183594 102.972656 C 212.75 103.449219 212.519531 104.09375 212.550781 104.738281 C 212.585938 105.382812 212.875 106 213.355469 106.433594 Z M 216.492188 102.976562 " fill-opacity="1" fill-rule="nonzero"/><path fill="#1c0306" d="M 214.472656 154.589844 C 212.832031 154.589844 211.238281 153.71875 210.382812 152.179688 C 206.90625 145.898438 209.347656 136.136719 216.316406 128.449219 C 223.289062 120.757812 232.757812 117.375 239.351562 120.21875 C 241.722656 121.238281 242.8125 123.988281 241.789062 126.355469 C 240.769531 128.726562 238.023438 129.816406 235.652344 128.792969 C 233.613281 127.910156 228.253906 129.1875 223.238281 134.71875 C 218.222656 140.253906 217.476562 145.710938 218.554688 147.65625 C 219.804688 149.910156 218.988281 152.753906 216.730469 154.003906 C 216.015625 154.398438 215.238281 154.589844 214.472656 154.589844 Z M 214.472656 154.589844 " fill-opacity="1" fill-rule="nonzero"/><path fill="#1c0306" d="M 210.039062 224.222656 L 180.304688 224.222656 C 179.144531 224.222656 178.027344 223.789062 177.167969 223.011719 L 100.042969 153.105469 C 99.125 152.277344 98.574219 151.113281 98.515625 149.875 C 98.453125 148.640625 98.886719 147.429688 99.71875 146.511719 L 222.871094 10.640625 C 224.605469 8.730469 227.558594 8.585938 229.46875 10.316406 L 322.914062 95.019531 C 324.828125 96.75 324.972656 99.703125 323.238281 101.617188 L 213.5 222.6875 C 212.613281 223.664062 211.355469 224.222656 210.039062 224.222656 Z M 182.105469 214.882812 L 207.96875 214.882812 L 313.183594 98.800781 L 226.65625 20.375 L 109.777344 149.324219 L 182.105469 214.878906 Z M 182.105469 214.882812 " fill-opacity="1" fill-rule="nonzero"/><g clip-path="url(#76b87239f8)"><path fill="#1c0306" d="M 370.316406 366.351562 L 4.679688 366.351562 C 2.101562 366.351562 0.0117188 364.257812 0.0117188 361.679688 L 0.0117188 242.640625 C 0.0117188 241.734375 0.273438 240.851562 0.765625 240.09375 L 40.183594 179.511719 C 41.046875 178.1875 42.519531 177.390625 44.097656 177.390625 L 138.941406 177.390625 C 140.101562 177.390625 141.21875 177.820312 142.078125 178.601562 L 182.105469 214.882812 L 207.96875 214.882812 L 240.5625 178.921875 C 241.445312 177.945312 242.703125 177.390625 244.023438 177.390625 L 330.902344 177.390625 C 332.480469 177.390625 333.953125 178.1875 334.816406 179.511719 L 374.234375 240.09375 C 374.726562 240.851562 374.988281 241.734375 374.988281 242.640625 L 374.988281 361.679688 C 374.988281 364.257812 372.898438 366.351562 370.316406 366.351562 Z M 9.351562 357.011719 L 365.648438 357.011719 L 365.648438 244.027344 L 328.367188 186.730469 L 246.089844 186.730469 L 213.5 222.6875 C 212.613281 223.664062 211.359375 224.222656 210.039062 224.222656 L 180.304688 224.222656 C 179.144531 224.222656 178.027344 223.789062 177.167969 223.011719 L 137.136719 186.730469 L 46.628906 186.730469 L 9.351562 244.027344 Z M 9.351562 357.011719 " fill-opacity="1" fill-rule="nonzero"/><path fill="#1c0306" d="M 370.316406 366.351562 L 4.679688 366.351562 C 2.101562 366.351562 0.0117188 364.257812 0.0117188 361.679688 L 0.0117188 242.640625 C 0.0117188 241.734375 0.273438 240.851562 0.765625 240.09375 L 40.183594 179.511719 C 41.046875 178.1875 42.519531 177.390625 44.097656 177.390625 L 138.941406 177.390625 C 140.101562 177.390625 141.21875 177.820312 142.078125 178.601562 L 182.105469 214.882812 L 207.96875 214.882812 L 240.5625 178.921875 C 241.445312 177.945312 242.703125 177.390625 244.023438 177.390625 L 330.902344 177.390625 C 332.480469 177.390625 333.953125 178.1875 334.816406 179.511719 L 374.234375 240.09375 C 374.726562 240.851562 374.988281 241.734375 374.988281 242.640625 L 374.988281 361.679688 C 374.988281 364.257812 372.898438 366.351562 370.316406 366.351562 Z M 9.351562 357.011719 L 365.648438 357.011719 L 365.648438 244.027344 L 328.367188 186.730469 L 246.089844 186.730469 L 213.5 222.6875 C 212.613281 223.664062 211.359375 224.222656 210.039062 224.222656 L 180.304688 224.222656 C 179.144531 224.222656 178.027344 223.789062 177.167969 223.011719 L 137.136719 186.730469 L 46.628906 186.730469 L 9.351562 244.027344 Z M 9.351562 357.011719 " fill-opacity="1" fill-rule="nonzero"/></g><path fill="#525560" d="M 134.417969 203.0625 L 127.429688 219.550781 L 180.304688 219.550781 L 162.109375 203.0625 Z M 134.417969 203.0625 " fill-opacity="1" fill-rule="nonzero"/><path fill="#525560" d="M 224.984375 203.0625 L 210.039062 219.550781 L 267.417969 219.550781 L 260.429688 203.0625 Z M 224.984375 203.0625 " fill-opacity="1" fill-rule="nonzero"/><path fill="#1c0306" d="M 180.304688 224.222656 L 127.429688 224.222656 C 125.863281 224.222656 124.398438 223.4375 123.535156 222.128906 C 122.667969 220.824219 122.515625 219.171875 123.128906 217.730469 L 130.117188 201.238281 C 130.851562 199.511719 132.542969 198.390625 134.417969 198.390625 L 162.109375 198.390625 C 163.269531 198.390625 164.386719 198.824219 165.246094 199.601562 L 183.4375 216.089844 C 184.871094 217.386719 185.355469 219.429688 184.660156 221.230469 C 183.964844 223.035156 182.234375 224.222656 180.304688 224.222656 Z M 134.480469 214.882812 L 168.195312 214.882812 L 160.308594 207.730469 L 137.511719 207.730469 Z M 134.480469 214.882812 " fill-opacity="1" fill-rule="nonzero"/><path fill="#1c0306" d="M 267.417969 224.222656 L 210.039062 224.222656 C 208.191406 224.222656 206.519531 223.132812 205.769531 221.445312 C 205.019531 219.753906 205.339844 217.78125 206.578125 216.414062 L 221.527344 199.925781 C 222.410156 198.949219 223.667969 198.390625 224.984375 198.390625 L 260.425781 198.390625 C 262.300781 198.390625 263.996094 199.511719 264.726562 201.238281 L 271.71875 217.730469 C 272.328125 219.171875 272.175781 220.824219 271.3125 222.128906 C 270.449219 223.4375 268.984375 224.222656 267.417969 224.222656 Z M 220.574219 214.882812 L 260.367188 214.882812 L 257.335938 207.730469 L 227.054688 207.730469 Z M 220.574219 214.882812 " fill-opacity="1" fill-rule="nonzero"/></svg>