<svg xmlns="http://www.w3.org/2000/svg" xmlns:xlink="http://www.w3.org/1999/xlink" width="1080" zoomAndPan="magnify" viewBox="0 0 810 809.999993" height="1080" preserveAspectRatio="xMidYMid meet" version="1.0"><defs><g/><clipPath id="8e0e64a5b4"><path d="M 329 60.582031 L 799.066406 60.582031 L 799.066406 417 L 329 417 Z M 329 60.582031 " clip-rule="nonzero"/></clipPath><clipPath id="622cc2be7e"><path d="M 10.816406 345 L 528 345 L 528 688 L 10.816406 688 Z M 10.816406 345 " clip-rule="nonzero"/></clipPath><clipPath id="ac57ecea9c"><path d="M 39 115 L 752 115 L 752 749.082031 L 39 749.082031 Z M 39 115 " clip-rule="nonzero"/></clipPath></defs><g clip-path="url(#8e0e64a5b4)"><path fill="#ffffff" d="M 780.582031 60.597656 L 347.953125 106.019531 C 337.664062 106.019531 329.328125 113.496094 329.328125 122.71875 L 330.558594 130.984375 L 756.773438 86.238281 C 767.0625 86.238281 775.402344 93.71875 775.402344 102.941406 L 775.402344 416.546875 L 780.582031 416.949219 C 790.867188 416.949219 799.207031 409.472656 799.207031 400.25 L 799.207031 77.300781 C 799.207031 68.074219 790.867188 60.597656 780.582031 60.597656 Z M 780.582031 60.597656 " fill-opacity="1" fill-rule="nonzero"/></g><g clip-path="url(#622cc2be7e)"><path fill="#ffffff" d="M 527.472656 665.707031 L 92.203125 631.984375 C 80.890625 631.984375 71.71875 623.761719 71.71875 613.617188 L 31.65625 345.191406 L 31.269531 345.230469 C 19.957031 345.230469 10.785156 353.453125 10.785156 363.597656 L 51.308594 635.089844 C 51.308594 645.234375 60.476562 653.460938 71.789062 653.460938 L 507.058594 687.179688 C 518.371094 687.179688 527.542969 678.957031 527.542969 668.8125 L 527.542969 665.699219 C 527.519531 665.703125 527.496094 665.707031 527.472656 665.707031 Z M 527.472656 665.707031 " fill-opacity="1" fill-rule="nonzero"/></g><g clip-path="url(#ac57ecea9c)"><path fill="#fbfada" d="M 722.78125 115.675781 L 67.328125 184.492188 C 51.742188 184.492188 39.109375 195.816406 39.109375 209.792969 L 94.933594 583.804688 C 94.933594 597.78125 107.566406 609.109375 123.152344 609.109375 L 567.839844 643.558594 L 614.882812 749.210938 L 633.128906 648.613281 L 722.78125 655.558594 C 738.367188 655.558594 751.003906 644.230469 751.003906 630.257812 L 751.003906 140.980469 C 751.003906 127.003906 738.367188 115.675781 722.78125 115.675781 Z M 722.78125 115.675781 " fill-opacity="1" fill-rule="nonzero"/></g><g fill="#12372a" fill-opacity="1"><g transform="translate(100.151482, 426.395064)"><g><path d="M -19.34375 -10.453125 L 19.796875 -10.453125 C 19.492188 -8.378906 19.234375 -6.378906 19.015625 -4.453125 C 18.796875 -2.523438 18.6875 -0.597656 18.6875 1.328125 C 18.6875 10.078125 20.460938 16.117188 24.015625 19.453125 C 27.578125 22.796875 31.4375 24.46875 35.59375 24.46875 C 39.445312 24.46875 42.890625 23.128906 45.921875 20.453125 C 48.960938 17.785156 50.484375 12.597656 50.484375 4.890625 C 50.484375 0.148438 49.816406 -4.476562 48.484375 -9 C 47.148438 -13.53125 44.960938 -18.90625 41.921875 -25.125 C 38.878906 -31.351562 34.617188 -39.289062 29.140625 -48.9375 C 25.128906 -56.050781 21.53125 -63.3125 18.34375 -70.71875 C 15.15625 -78.132812 12.597656 -85.21875 10.671875 -91.96875 C 8.742188 -98.71875 7.78125 -104.460938 7.78125 -109.203125 C 7.78125 -120.328125 10.300781 -129.519531 15.34375 -136.78125 C 20.382812 -144.050781 26.867188 -149.460938 34.796875 -153.015625 C 42.734375 -156.578125 50.929688 -158.359375 59.390625 -158.359375 C 69.472656 -158.359375 78.550781 -156.132812 86.625 -151.6875 C 94.707031 -147.238281 101.082031 -140.675781 105.75 -132 C 110.425781 -123.332031 112.765625 -112.625 112.765625 -99.875 C 112.765625 -96.601562 112.539062 -93.191406 112.09375 -89.640625 L 72.953125 -89.859375 C 73.835938 -94.753906 74.28125 -99.054688 74.28125 -102.765625 C 74.28125 -109.734375 73.054688 -114.769531 70.609375 -117.875 C 68.171875 -120.988281 65.242188 -122.546875 61.828125 -122.546875 C 59.015625 -122.546875 56.085938 -121.285156 53.046875 -118.765625 C 50.003906 -116.242188 48.484375 -111.5 48.484375 -104.53125 C 48.484375 -99.9375 49.375 -94.335938 51.15625 -87.734375 C 52.9375 -81.140625 55.976562 -73.988281 60.28125 -66.28125 C 68.582031 -51.457031 75.21875 -38.113281 80.1875 -26.25 C 85.15625 -14.382812 87.640625 -3.1875 87.640625 7.34375 C 87.640625 18.3125 85.003906 27.648438 79.734375 35.359375 C 74.472656 43.078125 67.765625 48.898438 59.609375 52.828125 C 51.453125 56.753906 43 58.71875 34.25 58.71875 C 25.351562 58.71875 16.753906 56.566406 8.453125 52.265625 C 0.148438 47.960938 -6.664062 41.507812 -12 32.90625 C -17.34375 24.3125 -20.015625 13.488281 -20.015625 0.4375 C -20.015625 -3.113281 -19.789062 -6.742188 -19.34375 -10.453125 Z M -19.34375 -10.453125 "/></g></g></g><g fill="#12372a" fill-opacity="1"><g transform="translate(198.029979, 461.778342)"><g><path d="M 49.640625 -8.6875 L 58.4375 -8.6875 L 54.3125 3.109375 L 45.078125 1.109375 L 39.40625 -7.015625 L 29.375 2.78125 C 24.632812 2.78125 20.390625 1.925781 16.640625 0.21875 C 12.890625 -1.488281 9.921875 -3.9375 7.734375 -7.125 C 5.546875 -10.3125 4.453125 -14.09375 4.453125 -18.46875 C 4.453125 -19.738281 4.453125 -21.019531 4.453125 -22.3125 C 4.453125 -23.613281 4.488281 -24.96875 4.5625 -26.375 L 38.28125 -32.828125 L 38.28125 -46.078125 C 35.757812 -48.671875 32.863281 -50.226562 29.59375 -50.75 C 26.332031 -51.269531 23.070312 -51.53125 19.8125 -51.53125 L 19.8125 -38.84375 L 11.796875 -37.28125 L 7.234375 -56.765625 C 10.796875 -57.578125 14.316406 -58.410156 17.796875 -59.265625 C 21.285156 -60.117188 24.8125 -60.914062 28.375 -61.65625 C 32.976562 -60.914062 36.96875 -59.953125 40.34375 -58.765625 C 43.71875 -57.578125 46.816406 -55.796875 49.640625 -53.421875 Z M 15.796875 -19.359375 C 15.878906 -15.359375 17.3125 -12.578125 20.09375 -11.015625 C 22.875 -9.460938 26.226562 -8.609375 30.15625 -8.453125 L 38.28125 -10.6875 L 38.28125 -23.59375 L 15.921875 -23.265625 C 15.835938 -22.597656 15.796875 -21.925781 15.796875 -21.25 C 15.796875 -20.582031 15.796875 -19.953125 15.796875 -19.359375 Z M 15.796875 -19.359375 "/></g></g></g><g fill="#12372a" fill-opacity="1"><g transform="translate(258.011509, 461.778342)"><g><path d="M 23.375 -8.015625 L 34.171875 -8.015625 L 30.828125 3 L 2.78125 0.21875 L 5.453125 -8.015625 L 12.015625 -8.015625 L 12.015625 -46.40625 L 3.34375 -49.640625 L 5.015625 -59.203125 L 23.375 -59.203125 L 23.375 -52.984375 L 36.609375 -61.65625 C 44.398438 -60.394531 49.929688 -57.09375 53.203125 -51.75 L 68.34375 -61.65625 C 77.988281 -60.175781 84.144531 -55.503906 86.8125 -47.640625 L 86.8125 -8.015625 L 94.71875 -8.015625 L 91.484375 2.890625 L 74.125 0.109375 L 75.453125 -8.015625 L 75.453125 -41.40625 C 74.710938 -44 73.25 -46.1875 71.0625 -47.96875 C 68.875 -49.75 66.59375 -50.863281 64.21875 -51.3125 L 55.09375 -46.640625 L 55.09375 -8.015625 L 63 -8.015625 L 59.765625 2.890625 L 42.40625 0.109375 L 43.734375 -8.015625 L 43.734375 -41.40625 C 42.992188 -44 41.53125 -46.1875 39.34375 -47.96875 C 37.15625 -49.75 34.875 -50.863281 32.5 -51.3125 L 23.375 -46.640625 Z M 23.375 -8.015625 "/></g></g></g><g fill="#12372a" fill-opacity="1"><g transform="translate(354.271287, 461.778342)"><g><path d="M 27.71875 2.109375 L 2.21875 -1.109375 L 4.453125 -8.015625 L 9.125 -8.015625 L 9.125 -32.171875 L 9.015625 -72.90625 L 0.328125 -76.125 L 2 -85.703125 L 20.375 -85.703125 L 20.375 -72.90625 L 20.484375 -52.421875 L 34.0625 -61.65625 C 37.769531 -60.695312 41.273438 -59.160156 44.578125 -57.046875 C 47.878906 -54.929688 50.753906 -52.203125 53.203125 -48.859375 L 54.3125 -32.171875 L 54.421875 -29.828125 L 55.203125 -17.921875 C 52.679688 -12.648438 49.359375 -8.4375 45.234375 -5.28125 C 41.117188 -2.132812 35.28125 0.328125 27.71875 2.109375 Z M 20.484375 -46.640625 L 20.484375 -8.015625 L 42.953125 -8.015625 L 42.953125 -42.734375 C 41.773438 -44.816406 40.203125 -46.597656 38.234375 -48.078125 C 36.265625 -49.566406 34.09375 -50.753906 31.71875 -51.640625 Z M 20.484375 -46.640625 "/></g></g></g><g fill="#12372a" fill-opacity="1"><g transform="translate(413.362553, 461.778342)"><g><path d="M 49.640625 -8.6875 L 58.4375 -8.6875 L 54.3125 3.109375 L 45.078125 1.109375 L 39.40625 -7.015625 L 29.375 2.78125 C 24.632812 2.78125 20.390625 1.925781 16.640625 0.21875 C 12.890625 -1.488281 9.921875 -3.9375 7.734375 -7.125 C 5.546875 -10.3125 4.453125 -14.09375 4.453125 -18.46875 C 4.453125 -19.738281 4.453125 -21.019531 4.453125 -22.3125 C 4.453125 -23.613281 4.488281 -24.96875 4.5625 -26.375 L 38.28125 -32.828125 L 38.28125 -46.078125 C 35.757812 -48.671875 32.863281 -50.226562 29.59375 -50.75 C 26.332031 -51.269531 23.070312 -51.53125 19.8125 -51.53125 L 19.8125 -38.84375 L 11.796875 -37.28125 L 7.234375 -56.765625 C 10.796875 -57.578125 14.316406 -58.410156 17.796875 -59.265625 C 21.285156 -60.117188 24.8125 -60.914062 28.375 -61.65625 C 32.976562 -60.914062 36.96875 -59.953125 40.34375 -58.765625 C 43.71875 -57.578125 46.816406 -55.796875 49.640625 -53.421875 Z M 15.796875 -19.359375 C 15.878906 -15.359375 17.3125 -12.578125 20.09375 -11.015625 C 22.875 -9.460938 26.226562 -8.609375 30.15625 -8.453125 L 38.28125 -10.6875 L 38.28125 -23.59375 L 15.921875 -23.265625 C 15.835938 -22.597656 15.796875 -21.925781 15.796875 -21.25 C 15.796875 -20.582031 15.796875 -19.953125 15.796875 -19.359375 Z M 15.796875 -19.359375 "/></g></g></g><g fill="#12372a" fill-opacity="1"><g transform="translate(473.344099, 461.778342)"><g><path d="M 21.921875 -8.015625 L 38.515625 -8.015625 L 36.5 3 C 27.75 3 21.222656 2.015625 16.921875 0.046875 C 12.617188 -1.910156 10.503906 -5.597656 10.578125 -11.015625 L 10.6875 -29.828125 L 10.6875 -31.9375 L 10.90625 -51.53125 L -0.21875 -52.421875 L 1.5625 -59.203125 L 10.34375 -59.203125 L 6.796875 -69.234375 L 22.265625 -81.03125 L 22.140625 -59.328125 L 39.40625 -59.4375 L 36.84375 -49.421875 L 22.140625 -50.640625 L 22.03125 -31.9375 L 22.03125 -29.828125 Z M 21.921875 -8.015625 "/></g></g></g><g fill="#12372a" fill-opacity="1"><g transform="translate(508.632698, 482.301947)"><g><path d="M 114.25 6.46875 C 111.425781 5.875 108.597656 5.238281 105.765625 4.5625 C 102.941406 3.894531 100.039062 3.117188 97.0625 2.234375 L 4.234375 -1.34375 L 6.46875 -22.3125 L 20.53125 -23.875 L 20.53125 -84.34375 L 20.3125 -135 L 3.5625 -136.78125 L 6.25 -159.09375 L 77.4375 -159.09375 L 71.84375 -130.3125 L 58.015625 -131.4375 L 58.015625 -24.765625 L 87.921875 -25.890625 C 90.890625 -33.765625 94.382812 -40.566406 98.40625 -46.296875 C 102.425781 -52.023438 106.816406 -57.269531 111.578125 -62.03125 L 127.40625 -54.453125 L 122.0625 -35.25 Z M 114.25 6.46875 "/></g></g></g><path stroke-linecap="round" transform="matrix(0.000000001309, 0.75, -0.75, 0.000000001309, 536.919528, 371.7784)" fill="none" stroke-linejoin="miter" d="M 1.498592 1.50208 L 115.092348 1.50208 " stroke="#fbfada" stroke-width="3" stroke-opacity="1" stroke-miterlimit="4"/><path stroke-linecap="round" transform="matrix(0, 0.75, -0.75, 0, 536.915592, 347.863157)" fill="none" stroke-linejoin="miter" d="M 1.500166 1.50204 L 24.213709 1.50204 " stroke="#fbfada" stroke-width="3" stroke-opacity="1" stroke-miterlimit="4"/><path stroke-linecap="round" transform="matrix(-0.131475, 0.738386, -0.738386, -0.131475, 626.20586, 449.820477)" fill="none" stroke-linejoin="miter" d="M 1.499209 1.498413 L 47.239207 1.501065 " stroke="#fbfada" stroke-width="3" stroke-opacity="1" stroke-miterlimit="4"/><path stroke-linecap="round" transform="matrix(-0.218271, 0.717536, -0.717536, -0.218271, 631.89074, 428.864638)" fill="none" stroke-linejoin="miter" d="M 1.499189 1.498502 L 14.505275 1.499889 " stroke="#fbfada" stroke-width="3" stroke-opacity="1" stroke-miterlimit="4"/><path stroke-linecap="round" transform="matrix(0.123241, 0.739805, -0.739805, 0.123241, 147.226066, 368.942169)" fill="none" stroke-linejoin="miter" d="M 1.987121 19.380981 C 66.559822 -4.182827 103.196802 -4.458 111.902345 18.561456 " stroke="#fbfada" stroke-width="3" stroke-opacity="1" stroke-miterlimit="4"/><path stroke-linecap="round" transform="matrix(-0.1787, 0.7284, -0.7284, -0.1787, 165.777211, 300.737407)" fill="none" stroke-linejoin="miter" d="M 1.682799 2.788555 C 5.612672 31.223206 29.838531 30.969737 74.360377 2.028148 " stroke="#fbfada" stroke-width="3" stroke-opacity="1" stroke-miterlimit="4"/><g fill="#12372a" fill-opacity="1"><g transform="translate(634.263908, 461.778342)"><g><path d="M 9.015625 -51.203125 L 1.109375 -51.203125 L 4.34375 -62.109375 L 21.703125 -59.328125 L 20.375 -51.203125 L 20.375 -17.8125 C 21.1875 -15.28125 22.664062 -13.101562 24.8125 -11.28125 C 26.96875 -9.46875 29.234375 -8.34375 31.609375 -7.90625 L 41.953125 -13.140625 L 41.953125 -51.203125 L 32.28125 -51.203125 L 35.71875 -62.109375 L 54.640625 -59.328125 L 53.3125 -51.203125 L 53.3125 -8.234375 L 62.328125 -8.234375 L 59.09375 2.671875 L 41.953125 0 L 41.953125 -7.015625 L 27.484375 2.453125 C 17.835938 0.960938 11.679688 -3.710938 9.015625 -11.578125 Z M 9.015625 -51.203125 "/></g></g></g><g fill="#12372a" fill-opacity="1"><g transform="translate(698.140334, 461.778342)"><g><path d="M 36.5 3.234375 L 2.78125 0.109375 L 4.34375 -8.015625 L 11.125 -8.015625 L 11.125 -45.859375 L 2.78125 -49.1875 L 4.34375 -59.203125 L 20.25 -59.203125 L 20.25 -45.859375 L 34.390625 -61.328125 C 36.984375 -61.328125 39.46875 -61.140625 41.84375 -60.765625 C 44.21875 -60.398438 46.148438 -59.921875 47.640625 -59.328125 L 45.296875 -46.859375 L 44.625 -46.859375 C 43.21875 -46.859375 41.585938 -46.859375 39.734375 -46.859375 C 37.878906 -46.859375 36.285156 -46.859375 34.953125 -46.859375 L 29.15625 -46.859375 L 22.484375 -39.40625 L 22.484375 -8.015625 L 39.953125 -8.015625 Z M 36.5 3.234375 "/></g></g></g></svg>